<?xml version="1.0" standalone="no"?>
<!DOCTYPE svg PUBLIC "-//W3C//DTD SVG 20010904//EN"
 "http://www.w3.org/TR/2001/REC-SVG-20010904/DTD/svg10.dtd">
<svg version="1.0" xmlns="http://www.w3.org/2000/svg"
 width="981.000000pt" height="981.000000pt" viewBox="0 0 981.000000 981.000000"
 preserveAspectRatio="xMidYMid meet">
<metadata>
Created by potrace 1.16, written by Peter Selinger 2001-2019
</metadata>
<g transform="translate(0.000000,981.000000) scale(0.100000,-0.100000)"
fill="#000000" stroke="none">
<path d="M7249 8692 c-100 -64 -133 -167 -85 -265 35 -72 73 -92 227 -118 295
-50 447 -140 779 -465 102 -99 200 -189 219 -199 25 -12 50 -16 91 -13 68 5
105 29 149 95 57 86 38 165 -74 303 -276 341 -703 614 -1054 675 -134 24 -199
20 -252 -13z"/>
<path d="M61 8616 l-64 -65 7 -2353 7 -2353 47 -48 c54 -54 85 -63 254 -73
l97 -6 4 -521 c4 -574 4 -578 64 -624 46 -35 121 -42 469 -43 l291 0 -13 -67
c-57 -293 -2 -553 173 -818 79 -118 234 -277 340 -348 359 -238 731 -259 1123
-62 113 57 185 112 306 236 138 143 206 248 269 414 66 177 85 474 39 628 -5
16 79 17 1667 17 l1672 0 -8 -42 c-67 -400 53 -771 341 -1054 93 -91 198 -163
328 -225 437 -209 902 -112 1271 265 156 160 248 315 301 511 25 92 27 115 28
285 0 121 -4 194 -11 212 -10 21 -9 29 0 35 7 4 147 9 312 11 l300 3 63 62 62
61 0 671 0 671 -53 55 c-29 30 -64 63 -79 75 -23 19 -26 29 -32 120 -4 54 -11
419 -16 809 -6 391 -14 756 -20 813 -31 321 -181 745 -377 1066 -143 233 -373
498 -448 518 -25 6 -370 12 -927 15 l-887 5 -4 537 c-4 593 -5 603 -63 627
-87 36 -144 37 -3494 41 l-3275 4 -64 -65z m6499 -913 c0 -318 -3 -1250 -7
-2070 l-6 -1493 -3069 0 -3068 0 0 2070 0 2070 3075 0 3075 0 0 -577z m1230
-1472 l0 -830 -402 6 c-222 3 -406 8 -410 12 -3 3 -8 374 -10 824 l-3 817 413
0 412 0 0 -829z m786 820 l62 -6 65 -81 c170 -211 309 -467 396 -729 65 -195
104 -425 118 -682 l6 -122 -29 -12 c-20 -9 -172 -13 -511 -17 l-483 -4 0 831
0 831 158 -1 c86 -1 185 -4 218 -8z m644 -2518 c0 -513 9 -676 37 -726 12 -22
38 -41 81 -62 l62 -29 -2 -391 -3 -390 -269 -3 -269 -2 -117 113 c-276 268
-497 356 -863 344 -184 -6 -269 -26 -413 -97 -116 -57 -205 -122 -356 -261
l-106 -99 -1861 0 -1861 0 -107 101 c-146 137 -219 191 -348 254 -241 119
-515 144 -773 69 -190 -55 -348 -151 -518 -316 l-111 -108 -307 0 -306 0 0
393 0 394 2813 6 c1546 4 2906 10 3020 14 236 7 254 12 292 88 19 38 20 63 23
595 1 305 4 561 7 568 3 9 238 12 1130 12 l1125 0 0 -467z m-6655 -1567 c79
-21 209 -86 265 -133 109 -90 202 -236 235 -368 20 -79 20 -325 0 -420 -75
-358 -472 -596 -868 -521 -162 31 -273 92 -389 214 -112 118 -167 233 -189
400 -39 296 97 612 322 745 66 39 184 81 273 97 72 13 279 4 351 -14z m5575
-1 c84 -20 210 -83 283 -141 103 -80 197 -255 234 -432 24 -120 14 -282 -24
-395 -42 -119 -85 -188 -173 -277 -86 -87 -187 -145 -316 -182 -103 -30 -312
-32 -414 -4 -217 59 -375 190 -474 396 l-41 85 0 240 0 240 34 65 c83 161 174
266 285 329 67 39 172 79 239 91 73 13 289 4 367 -15z"/>
<path d="M2255 2696 c-91 -29 -146 -65 -220 -141 -69 -71 -120 -163 -137 -247
-24 -117 29 -257 141 -369 124 -123 265 -165 417 -124 126 34 258 148 318 275
28 58 31 75 31 160 0 91 -2 100 -39 174 -68 138 -195 242 -342 280 -78 20 -84
20 -169 -8z"/>
<path d="M7830 2697 c-164 -55 -282 -167 -330 -313 -33 -98 -26 -214 18 -306
38 -78 112 -163 180 -207 127 -81 278 -94 405 -34 121 57 230 181 268 304 25
79 24 145 -2 221 -54 161 -195 291 -371 342 -71 20 -88 20 -168 -7z"/>
</g>
</svg>
