<?xml version="1.0" standalone="no"?>
<!DOCTYPE svg PUBLIC "-//W3C//DTD SVG 20010904//EN"
 "http://www.w3.org/TR/2001/REC-SVG-20010904/DTD/svg10.dtd">
<svg version="1.0" xmlns="http://www.w3.org/2000/svg"
 width="512.000000pt" height="512.000000pt" viewBox="0 0 512.000000 512.000000"
 preserveAspectRatio="xMidYMid meet">
<metadata>
Created by potrace 1.16, written by Peter Selinger 2001-2019
</metadata>
<g transform="translate(0.000000,512.000000) scale(0.100000,-0.100000)"
fill="#000000" stroke="none">
<path d="M826 4464 c-232 -50 -418 -181 -505 -355 -76 -151 -72 -62 -69 -1584
3 -1272 5 -1364 22 -1420 54 -183 166 -322 317 -395 155 -74 37 -70 1865 -70
1604 0 1643 0 1718 20 193 49 336 164 420 335 47 95 65 170 73 295 3 58 11
108 17 112 6 4 22 8 36 8 41 0 123 44 161 87 72 79 74 95 74 488 0 319 -2 354
-19 399 -36 93 -119 161 -215 175 l-46 6 -6 110 c-8 130 -19 175 -65 273 -62
130 -197 251 -353 316 -151 64 -31 60 -1766 66 -1762 6 -1617 0 -1774 76 -324
159 -350 580 -47 776 33 21 96 51 140 66 l81 27 1595 3 c1116 2 1611 -1 1647
-8 173 -36 303 -178 332 -360 6 -36 11 -183 11 -327 l0 -263 101 0 101 0 -5
318 c-5 352 -8 374 -75 512 -27 55 -57 95 -112 150 -85 85 -162 129 -286 160
-75 20 -113 20 -1688 19 -1380 -1 -1621 -3 -1680 -15z m-196 -1248 c41 -20
111 -46 155 -58 l80 -23 1580 -5 c1475 -5 1584 -7 1640 -23 101 -30 186 -78
251 -142 90 -89 134 -198 134 -334 l0 -58 -237 -6 c-262 -6 -311 -14 -417 -69
-85 -44 -202 -164 -243 -249 -160 -326 2 -709 347 -821 57 -18 97 -21 309 -26
l244 -5 -6 -88 c-17 -229 -127 -379 -327 -446 -52 -17 -136 -18 -1610 -21
-937 -2 -1593 1 -1650 7 -113 11 -177 31 -247 78 -66 44 -118 114 -152 206
l-26 72 -3 1063 -3 1063 53 -40 c29 -22 87 -56 128 -75z m4097 -880 l28 -24 0
-327 0 -327 -28 -24 -29 -25 -352 3 -351 3 -67 33 c-83 41 -158 120 -189 200
-31 79 -31 195 0 274 39 100 138 190 244 223 31 10 130 14 379 14 l337 1 28
-24z"/>
<path d="M1372 2543 c3 -286 5 -313 25 -373 32 -94 89 -184 163 -260 78 -79
157 -129 265 -166 77 -27 89 -29 309 -32 l229 -4 -154 -154 -154 -154 65 -65
c36 -36 71 -64 77 -63 13 3 543 528 543 538 0 3 -121 126 -270 275 l-269 269
-69 -64 c-38 -36 -70 -68 -71 -71 0 -3 68 -74 152 -157 l152 -152 -187 0
c-103 0 -211 5 -240 11 -168 35 -319 184 -357 350 -6 24 -11 164 -11 312 l0
267 -101 0 -100 0 3 -307z"/>
<path d="M4115 2271 c-88 -24 -159 -82 -196 -159 -32 -67 -32 -187 0 -254 26
-55 96 -122 149 -146 60 -26 186 -22 246 7 61 30 113 82 140 140 30 66 29 188
-2 252 -29 59 -82 112 -139 139 -49 23 -151 34 -198 21z m136 -227 c52 -55 10
-148 -66 -148 -49 0 -87 38 -87 89 0 83 96 120 153 59z"/>
<path d="M870 4000 l0 -100 1490 0 1490 0 0 100 0 100 -1490 0 -1490 0 0 -100z"/>
<path d="M1830 3615 l0 -105 1010 0 1010 0 0 105 0 105 -1010 0 -1010 0 0
-105z"/>
</g>
</svg>
