<?xml version="1.0" standalone="no"?>
<!DOCTYPE svg PUBLIC "-//W3C//DTD SVG 20010904//EN"
 "http://www.w3.org/TR/2001/REC-SVG-20010904/DTD/svg10.dtd">
<svg version="1.0" xmlns="http://www.w3.org/2000/svg"
 width="980.000000pt" height="860.000000pt" viewBox="0 0 980.000000 860.000000"
 preserveAspectRatio="xMidYMid meet">
<metadata>
Created by potrace 1.16, written by Peter Selinger 2001-2019
</metadata>
<g transform="translate(0.000000,860.000000) scale(0.100000,-0.100000)"
fill="#000000" stroke="none">
<path d="M1590 8579 c-234 -27 -502 -106 -710 -211 -489 -246 -770 -645 -857
-1214 -15 -98 -16 -267 -15 -1716 1 -1564 2 -1610 21 -1730 64 -386 210 -702
431 -932 204 -212 446 -336 745 -381 72 -11 185 -15 408 -15 l307 0 0 -910 0
-910 183 2 184 3 846 886 846 887 888 6 c488 3 1106 10 1373 15 470 9 488 10
593 34 297 71 612 218 845 395 301 230 498 511 588 839 54 199 54 186 54 1811
0 990 -4 1536 -11 1600 -33 310 -137 606 -296 846 -87 133 -273 319 -402 405
-173 115 -387 203 -604 250 -243 53 -160 51 -2847 50 -1372 -1 -2529 -5 -2570
-10z m5006 -459 c236 -16 418 -59 593 -141 303 -141 533 -408 614 -712 l22
-82 0 -1600 c0 -1488 -1 -1608 -18 -1713 -52 -330 -146 -544 -316 -724 -153
-162 -333 -256 -591 -310 -84 -17 -158 -21 -655 -29 -308 -5 -972 -12 -1475
-15 l-915 -7 -765 -740 -765 -741 -5 700 -5 699 -190 6 c-207 8 -374 27 -560
64 -629 127 -1032 443 -1162 910 l-28 100 0 1500 c0 1659 -2 1589 65 1849 157
607 590 952 1240 989 147 9 4790 6 4916 -3z"/>
<path d="M2172 5936 c-206 -51 -392 -235 -448 -446 -22 -84 -22 -225 0 -309
54 -209 226 -383 442 -447 95 -28 248 -24 349 10 103 35 178 81 249 153 172
173 226 411 147 640 -67 192 -233 347 -428 397 -73 19 -235 20 -311 2z m264
-374 c157 -80 192 -285 69 -407 -122 -123 -325 -88 -408 70 -28 53 -30 164 -3
215 35 67 95 118 166 141 40 13 133 3 176 -19z"/>
<path d="M4000 5934 c-334 -93 -530 -435 -439 -764 63 -228 256 -404 489 -446
138 -25 252 -8 389 59 148 71 258 203 317 377 28 83 26 262 -3 355 -59 185
-197 331 -381 402 -57 22 -86 27 -192 29 -90 3 -140 0 -180 -12z m236 -359
c144 -43 216 -210 150 -350 -56 -121 -202 -177 -324 -125 -57 25 -116 83 -140
139 -23 54 -19 150 8 205 39 82 135 143 226 145 17 1 53 -6 80 -14z"/>
<path d="M5745 5931 c-89 -25 -181 -78 -252 -144 -159 -149 -230 -362 -189
-566 47 -232 195 -400 421 -477 101 -34 254 -38 350 -10 212 63 387 239 439
442 20 78 21 231 1 309 -55 217 -233 395 -450 450 -80 20 -243 19 -320 -4z
m281 -369 c90 -47 138 -126 138 -227 0 -79 -20 -129 -75 -183 -159 -155 -429
-40 -429 183 0 184 204 310 366 227z"/>
<path d="M8437 6153 c-4 -3 -7 -95 -7 -204 l0 -198 43 -5 c23 -3 72 -8 109
-11 343 -29 674 -259 831 -577 l38 -76 -3 -1278 -3 -1279 -23 -79 c-74 -253
-247 -444 -537 -589 -49 -24 -130 -59 -180 -77 -103 -36 -316 -90 -357 -90
l-28 0 -2 -467 -3 -467 -510 497 -510 497 -1135 0 c-624 0 -1174 4 -1222 10
-134 14 -225 65 -269 152 l-19 38 -210 0 -210 0 0 -33 c0 -18 7 -58 16 -88 65
-223 328 -404 661 -454 81 -12 272 -15 1128 -15 l1030 -1 680 -674 680 -674
188 -1 187 0 0 688 0 689 84 22 c372 98 738 466 879 881 l32 95 3 1409 2 1410
-26 80 c-34 103 -103 243 -162 326 -204 287 -614 500 -1032 535 -41 3 -89 8
-106 11 -17 2 -33 1 -37 -3z"/>
</g>
</svg>
